<svg xmlns="http://www.w3.org/2000/svg" viewBox="0 0 64 64" width="64" height="64">
	<defs>
		<linearGradient id="bird" x1="0" y1="0" x2="1" y2="1">
			<stop offset="0%" stop-color="#ff7ab8" />
			<stop offset="100%" stop-color="#e0399b" />
		</linearGradient>
		<linearGradient id="bars" x1="0" y1="1" x2="1" y2="0">
			<stop offset="0%" stop-color="#a855f7" />
			<stop offset="100%" stop-color="#ff4d9e" />
		</linearGradient>
	</defs>
	<rect width="64" height="64" rx="15" fill="#0f0d18" />
	<g fill="url(#bars)">
		<rect x="12" y="42" width="6" height="11" rx="2.5" />
		<rect x="22" y="36" width="6" height="17" rx="2.5" />
		<rect x="32" y="39" width="6" height="14" rx="2.5" />
		<rect x="42" y="31" width="6" height="22" rx="2.5" />
	</g>
	<path
		fill="url(#bird)"
		d="M50 12c-6.6 1.1-11.9 3.6-16.2 7.2-3.9 3.3-6.6 7.2-9.2 11.2-1.4 2.1-2.7 4-4.2 5.5.4-4.6 2.2-8.7 5.1-12.4-4.4 1.7-7.6 4.6-9.4 8.6-1.9 4.2-2 8.7-.6 13.2 3.4-2.6 6.3-4.2 9.4-5.2 3.4-1.1 6.7-1.4 10.6-1.7 3.4-.3 6-1.4 8-3.3 2-1.9 3-4.3 3-7 0-1.3-.3-2.5-.8-3.6 2.2-3.4 3.4-7.5 4.3-12.5z"
	/>
</svg>
